<svg xmlns="http://www.w3.org/2000/svg" version="1.1" xmlns:xlink="http://www.w3.org/1999/xlink" xmlns:svgjs="http://svgjs.dev/svgjs" viewBox="0 0 800 800"><defs><linearGradient x1="50%" y1="0%" x2="50%" y2="100%" id="wwwhirl-grad"><stop stop-color="rgba(5, 150, 79, 1.00)" stop-opacity="1" offset="45%"></stop><stop stop-color="hsla(118, 62%, 37%, 1.00)" stop-opacity="1" offset="100%"></stop></linearGradient></defs><g stroke-width="4" stroke="url(#wwwhirl-grad)" fill="none" stroke-linecap="round"><path d="M-148.25005723259653 410.46548658579917C-131.63642040804385 399.50048628159436 -81.79550993438576 345.92150752241196 -48.56823628528039 344.6754847605705C-15.340962636174993 343.42946199872904 17.88631101293035 401.743327252909 51.11358466203575 402.98935001475047C84.34085831114112 404.2353727765919 117.56813196024649 350.9055985697778 150.79540560935192 352.1516213316192C184.0226792584573 353.39764409346066 217.24995290756272 405.73060009080166 250.47722655666809 410.46548658579917C283.70450020577346 415.2003730807967 316.93177385487877 377.81969022555313 350.1590475039841 380.5609403016043C383.3863211530896 383.3021903776555 416.61359480219494 426.41457793736976 449.84086845130037 426.91298704210635C483.0681421004057 427.4113961468429 516.2954157495111 383.8005994823921 549.5226893986165 383.5513949300238C582.7499630477217 383.3021903776555 615.9772366968273 424.91935062316 649.2045103459326 425.4177597278966C682.4317839950379 425.91616883263316 715.6590576441436 381.5577585110775 748.8863312932489 386.5418495584433C782.1136049423542 391.52594060580907 815.3408785914596 454.07628325024996 848.5681522405648 455.3223060120914C881.7954258896702 456.5683287739329 931.6363363633284 404.2353727765919 948.2499731878811 394.017986129492 " transform="rotate(153, 400, 400)"></path><path d="M-137.50005730715654 410.26028463157104C-121.212178067399 399.5102843333311 -72.34854034812636 346.981873785113 -39.772781868611276 345.76028284213123C-7.197023389096216 344.5386918991494 25.378735090418843 401.7091480306984 57.9544935699339 402.93073897368015C90.53025204944902 404.152329916662 123.10601052896408 351.8682375570403 155.6817690084792 353.0898285000221C188.2575274879943 354.3114194430039 220.83328596750943 405.6182390482402 253.40904444702448 410.26028463157104C285.98480292653954 414.90233021490195 318.5605614060546 378.2546019254475 351.1363198855697 380.9421020000075C383.7120783650847 383.6296020745675 416.28783684459984 425.8966487017383 448.86359532411495 426.385285078931C481.43935380362996 426.87392145612375 514.0151122831451 384.1182384517602 546.5908707626602 383.8739202631638C579.1666292421752 383.6296020745675 611.7423877216903 424.43073957016014 644.3181462012054 424.9193759473528C676.8939046807204 425.40801232454555 709.4696631602357 381.91937475439295 742.0454216397507 386.8057385263202C774.6211801192658 391.69210229824745 807.1969385987809 453.0159676359346 839.772697078296 454.23755857891643C872.3484555578111 455.45914952189827 921.2120932770836 404.152329916662 937.4999725168411 394.1352841842111 " transform="rotate(150, 400, 400)"></path><path d="M-126.75005738171653 410.0550788626457C-110.78793572675414 399.5200785703705 -62.901570761866964 348.0422362331168 -30.977327451942188 346.84507710899464C0.9469158579826171 345.64791798487244 32.87115916790734 401.67496499379047 64.79540247783211 402.8721241179126C96.71964578775692 404.06928324203477 128.64388909768172 352.8308727296055 160.56813240760647 354.0280318537277C192.49237571753127 355.2251909778499 224.41661902745608 405.5058741909814 256.3408623373808 410.0550788626457C288.26510564730563 414.60428353430996 320.1893489572303 378.6895098106446 352.1135922671551 381.3232598837134C384.03783557707993 383.9570099567822 415.96207888700474 425.3787156514096 447.88632219692954 425.8575793010585C479.81056550685435 426.33644295070735 511.73480881677904 384.4358736064311 543.6590521267038 384.1964417816066C575.5832954366285 383.9570099567822 607.5075387465535 423.942124702463 639.4317820564781 424.42098835211186C671.3560253664027 424.8998520017607 703.2802686763279 382.2809871830111 735.2045119862526 387.06962367949984C767.1287552961774 391.85826017598856 799.0529986061022 451.955648206922 830.9772419160267 453.15280733104413C862.9014852259515 454.34996645516634 910.7878501908388 404.06928324203477 926.7499718458012 394.2525784242329 " transform="rotate(147, 400, 400)"></path><path d="M-116.00005745627652 409.8498730937203C-100.36369338610929 399.52987280740996 -53.454601175607564 349.1025986811206 -22.1818730352731 347.92987137585806C9.090855105061394 346.75714407059553 40.36358324539583 401.6407819568825 71.63631138573032 402.8135092621451C102.90903952606482 403.9862365674076 134.1817676663993 353.7935079021708 165.4544958067338 354.96623520743333C196.7272239470683 356.13896251269585 227.99995208740273 405.39350933372265 259.2726802277373 409.8498730937203C290.5454083680717 414.306236853718 321.81813650840616 379.1244176958417 353.09086464874053 381.7044177674193C384.363592789075 384.2844178389969 415.63632092940964 424.86078260108087 446.909049069744 425.3298735231859C478.1817772100786 425.79896444529095 509.454505350413 384.7535087611019 540.7272334907476 384.5189633000494C571.9999616310819 384.2844178389969 603.2726897714165 423.45350983476584 634.5454179117509 423.92260075687085C665.8181460520852 424.39169167897586 697.09087419242 382.64259961162935 728.3636023327545 387.3335088326795C759.6363304730888 392.0244180537297 790.9090586134234 450.8953287779093 822.1817867537577 452.0680560831719C853.4545148940924 453.24078338843447 900.3636071045939 403.9862365674076 915.9999711747612 394.3698726642548 " transform="rotate(144, 400, 400)"></path><path d="M-105.2500270132584 409.64466541744633C-89.93942052788631 399.53966513710077 -44.007601071770026 350.1629592217758 -13.386388101025886 349.0146637353729C17.234824869718324 347.86636824896993 47.85603784046245 401.60659701262597 78.47725081120666 402.75489249902887C109.09846378195084 403.90318798543177 139.71967675269502 354.7561411673874 170.3408897234392 355.9044366537903C200.9621026941834 357.0527321401932 231.58331566492757 405.2811425691153 262.20452863567175 409.64466541744633C292.82574160641593 414.0081882657774 323.44695457716006 379.5593236736902 354.0681675479043 382.0855737437766C384.6893805186485 384.611823813863 415.31059348939255 424.34284764340356 445.9318064601367 424.8021658379647C476.5530194308809 425.26148403252586 507.1742324016251 385.07114200842415 537.7954453723693 384.84148291114354C568.4166583431135 384.611823813863 599.0378713138576 422.96489305972005 629.6590842846018 423.4242112542812C660.2802972553459 423.88352944884235 690.9015102260903 383.0042101328989 721.5227231968345 387.59739207851055C752.1439361675785 392.19057402412216 782.7651491383228 449.83500744154804 813.3863621090669 450.98330292795094C844.007575079811 452.1315984143539 889.9393945359275 403.90318798543177 905.2500010212993 394.48716499692796 " transform="rotate(141, 400, 400)"></path><path d="M-94.5000270878184 409.43946727791547C-79.51517818724145 399.54946700353474 -34.560631485510626 351.2233292991741 -4.59093368435677 350.09946563163084C25.37876411679713 348.97560196408756 55.34846191795097 401.5724216051126 85.31815971910484 402.69628527265587C115.28785752025874 403.82014894019915 145.2575553214126 355.71878396934716 175.22725312256648 356.84264763689043C205.19695092372035 357.9665113044337 235.16664872487428 405.16878534125107 265.1363465260281 409.43946727791547C295.106044327182 413.7101492145799 325.0757421283358 379.9942391882818 355.0454399294897 382.466739256877C385.0151377306436 384.9392393254722 414.98483553179744 423.82492222246935 444.9545333329514 424.27446768948664C474.9242311341052 424.724013156504 504.89392893525917 385.3887847924895 534.8636267364129 385.16401205898086C564.8333245375668 384.9392393254722 594.8030223387208 422.47628582141743 624.7727201398745 422.9258312884347C654.7424179410284 423.37537675545207 684.7121157421825 383.36583019091165 714.6818135433363 387.8612848610847C744.65151134449 392.3567395312578 774.6212091456441 448.77469564192995 804.5909069467979 449.8985593094732C834.5606047479516 451.0224229770165 879.5151514496824 403.82014894019915 894.5000003502594 394.6044668663443 " transform="rotate(138, 400, 400)"></path><path d="M-83.75002716237839 409.23425769429286C-69.0909358465966 399.55925742587686 -25.113661899251227 352.28368793248063 4.204520732312346 351.184256083797C33.522703363875905 350.08482423511333 62.840885995439464 401.5382347535074 92.15906862700305 402.6376666021911C121.47725125856664 403.73709845087467 150.7954338901302 356.6814153272152 180.1136165216938 357.78084717589877C209.43179915325737 358.8802790245824 238.74998178482093 405.05641666929506 268.0681644163845 409.23425769429286C297.3863470479481 413.41209871929067 326.7045296795116 380.42914325878166 356.02271231107517 382.84789332588565C385.3408949426388 385.26664339298964 414.65907757420234 423.3069853574434 443.9772602057659 423.74675809691684C473.29544283732946 424.18653083639026 502.61362546889313 385.7064161324631 531.9318081004567 385.4865297627264C561.2499907320201 385.26664339298964 590.5681733635838 421.987667139023 619.8863559951474 422.42743987849644C649.2045386267109 422.8672126179699 678.5227212582746 383.72743880483256 707.8409038898382 388.1251661995671C737.1590865214016 392.52289359430165 766.4772691529654 447.71437239822 795.7954517845287 448.8138042469037C825.1136344160923 449.9132360955873 869.0909083634377 403.73709845087467 883.7499996792194 394.7217572916689 " transform="rotate(135, 400, 400)"></path><path d="M-72.99999671936025 409.02905001801884C-58.666662988373616 399.5690497555677 -15.666661795413702 353.3440484731358 13.00000566655956 352.26904844331176C41.666673128532864 351.1940484134878 70.33334059050608 401.5040498092509 99.00000805247936 402.57904983907486C127.66667551445266 403.6540498688989 156.3333429764259 357.6440485924318 185.00001043839922 358.7190486222558C213.66667790037246 359.79404865207977 242.33334536234577 404.9440499046877 271.000012824319 409.02905001801884C299.6666802862923 413.11405013135004 328.3333477482655 380.86404923663014 357.0000152102388 383.2290493022429C385.6666826722121 385.59404936785575 414.33335013418537 422.78905039976604 443.0000175961586 423.21905041169566C471.666685058132 423.6490504236252 500.3333525201051 386.0240493797853 529.0000199820785 385.8090493738205C557.6666874440517 385.59404936785575 586.333354906025 421.49905036397723 615.0000223679982 421.92905037590685C643.6666898299713 422.3590503878364 672.333357291945 384.0890493261021 701.0000247539182 388.3890494453981C729.6666922158913 392.6890495646941 758.3333596778648 446.65405106185875 787.0000271398379 447.7290510916828C815.6666946018111 448.8040511215068 858.666695794771 403.6540498688989 873.0000295257577 394.8390496243421 " transform="rotate(132, 400, 400)"></path><path d="M-62.249996793920246 408.82384234174486C-48.242420647728764 399.5788420852585 -6.219692209154289 354.40440901379094 21.795460083228647 353.3538408028266C49.81061237561164 352.3032725918622 77.82576466799458 401.46986486499435 105.84091696037757 402.5204330759587C133.8560692527605 403.57100128692304 161.8712215451435 358.60668185764837 189.88637383752643 359.65725006861277C217.90152612990948 360.7078182795771 245.91667842229242 404.83168314008026 273.9318307146754 408.82384234174486C301.94698300705835 412.81600154340947 329.9621352994413 381.2989552144786 357.9772875918243 383.6102052786002C385.9924398842072 385.9214553427218 414.00759217659015 422.27111544208867 442.0227444689733 422.69134272647443C470.03789676135614 423.1115700108602 498.0530490537392 386.3416826271075 526.0682013461221 386.1315689849147C554.0833536385051 385.9214553427218 582.0985059308881 421.01043358893145 610.113658223271 421.4306608733172C638.1288105156539 421.8508881577029 666.143962808037 384.4506598473717 694.15911510042 388.6529326912291C722.1742673928028 392.85520553508655 750.1894196851858 445.5937297254975 778.2045719775689 446.6442979364619C806.2197242699518 447.69486614742624 848.2424527085262 403.57100128692304 862.2500288547177 394.9563419570153 " transform="rotate(129, 400, 400)"></path><path d="M-51.49999686848024 408.6186422948654C-37.81817830708391 399.5886420443438 3.2272773771051106 355.4647771838406 30.590914499897764 354.4386407917359C57.954551622690445 353.4125043996312 85.31818874548307 401.43568755013234 112.68182586827575 402.46182394223706C140.04546299106846 403.4879603343418 167.4091001138611 359.56932275225955 194.77273723665382 360.59545914436427C222.13637435944645 361.621595536469 249.50001148223913 404.7193240048674 276.8636486050318 408.6186422948654C304.2272857278245 412.5179605848634 331.59092285061706 381.7338688217216 358.95455997340974 383.991368884352C386.3181970962024 386.2488689469824 413.68183421899516 421.7531881138059 441.0454713417878 422.1636426706478C468.4091084645804 422.5740972274897 495.77274558737315 386.6593235038243 523.1363827101659 386.4540962254033C550.5000198329584 386.2488689469824 577.8636569557511 420.52182444328025 605.2272940785438 420.9322790001221C632.5909312013364 421.342733556964 659.9545683241292 384.81227799803577 687.3182054469219 388.9168235664547C714.6818425697145 393.02136913487357 742.0454796925071 444.5334160185308 769.4091168152997 445.5595524106355C796.7727539380924 446.58568880274026 837.8182096222815 403.4879603343418 851.5000281836777 395.073641919083 " transform="rotate(126, 400, 400)"></path><path d="M-40.74999694304023 408.41343271124276C-27.393935966439045 399.598432466686 12.67424696336451 356.52513581714715 39.38636891656688 355.52343124390205C66.09849086976925 354.521726670657 92.81061282297159 401.4015006985271 119.52273477617396 402.4032052717722C146.23485672937633 403.4049098450173 172.94697868257867 360.5319541101275 199.6591006357811 361.5336586833726C226.37122258898347 362.5353632566177 253.08334454218578 404.6069553329114 279.7954664953882 408.41343271124276C306.5075884485905 412.2199100895741 333.2197104017929 382.16877289222145 359.93183235499527 384.37252295336066C386.6439543081976 386.57627301449986 413.35607626139995 421.2352512487799 440.0681982146024 421.6359330780779C466.7803201678047 422.03661490737596 493.4924421210071 386.9769548437979 520.2045640742094 386.7766139291489C546.9166860274117 386.57627301449986 573.6288079806143 420.03320576088583 600.3409299338165 420.4338875901838C627.0530518870188 420.83456941948185 653.7651738402213 385.17388661195673 680.4772957934238 389.18070490493704C707.1894177466261 393.1875231979174 733.9015396998284 443.4730927748209 760.6136616530308 444.474797348066C787.3257836062331 445.47650192131107 827.3939665360367 403.4049098450173 840.7500275126379 395.1909323444076 " transform="rotate(123, 400, 400)"></path><path d="M-29.999997017600236 408.2082269423174C-16.969693625794193 399.60822670372545 22.12121654962391 357.58549826515093 48.18182333323597 356.6082255107655C74.24243011684803 355.63095275638005 100.30303690046009 401.3673176616192 126.36364368407214 402.3445904160047C152.42425046768423 403.32186317039015 178.48485725129626 361.4945892826928 204.54546403490838 362.4718620370782C230.60607081852044 363.4491347914637 256.6666776021325 404.49459047565267 282.72728438574455 408.2082269423174C308.7878911693566 411.9218634089821 334.8484979529686 382.60368077741856 360.90910473658073 384.75368083706655C386.9697115201928 386.90368089671455 413.0303183038049 420.7173181984512 439.09092508741696 421.1082273002054C465.15153187102896 421.49913640195956 491.2121386546411 387.2945899984687 517.2727454382531 387.0991354475916C543.3333522218651 386.90368089671455 569.3939590054773 419.5445908931886 595.4545657890893 419.9354999949428C621.5151725727013 420.326409096697 647.5757793563135 385.5354990405749 673.6363861399255 389.4445900581167C699.6969929235377 393.3536810756585 725.7575997071497 442.4127733458082 751.8182064907618 443.3900461001937C777.8788132743737 444.36731885457914 816.9697234497919 403.32186317039015 830.0000268415979 395.3082265844294 " transform="rotate(120, 400, 400)"></path><path d="M-19.24999709216023 408.00302308074066C-6.5454512851493405 399.61802284811347 31.56818613588331 358.6458626205034 56.977277749905056 357.69302168497757C82.38636936392683 356.7401807494518 107.79546097794855 401.33313653205994 133.20455259197036 402.2859774675858C158.61364420599213 403.23881840311157 184.0227358200139 362.45722636260666 209.43182743403565 363.41006729813245C234.8409190480574 364.3629082336583 260.2500106620792 404.38222752574256 285.65910227610095 408.00302308074066C311.06819389012276 411.62381863573876 336.47728550414445 383.0385905699643 361.8863771181662 385.1348406281211C387.29546873218794 387.23109068627787 412.70456034620975 420.1993870554711 438.11365196023144 420.5805234296814C463.52274357425335 420.96165980389173 488.93183518827504 387.6122270604882 514.3409268022968 387.421658873383C539.7500184163185 387.23109068627787 565.1591100303403 419.05597793284016 590.568201644362 419.4371143070505C615.9772932583838 419.8182506812608 641.3863848724056 385.8971133765417 666.7954764864274 389.70847711864496C692.2045681004491 393.5198408607483 717.6136597144709 441.3524558241442 743.0227513284926 442.30529675967006C768.4318429425144 443.25813769519584 806.5454803635471 403.23881840311157 819.2500261705579 395.4255227317999 " transform="rotate(117, 400, 400)"></path><path d="M-8.49999716672022 407.79781349711806C3.878791055495512 399.62781327045565 41.01515572214272 359.70622125380993 65.77273216657417 358.7778121371437C90.53030861100564 357.84940302047755 115.28788505543707 401.29894968045477 140.04546149986854 402.2273587971209C164.8030379443 403.15576791378714 189.56061438873144 363.4198577204746 214.31819083316293 364.34826683714084C239.07576727759442 365.276675953807 263.83334372202586 404.26985885378656 288.59092016645735 407.79781349711806C313.34849661088884 411.3257681404495 338.1060730553202 383.47349464046414 362.86364949975166 385.5159946971297C387.62122594418315 387.5584947537953 412.37880238861464 419.68145019044516 437.13637883304614 420.0528138371116C461.8939552774775 420.42417748377807 486.651531721909 387.9298584004618 511.4091081663405 387.74417657712854C536.1666846107719 387.5584947537953 560.9242610552035 418.56735925044575 585.6818374996349 418.9387228971122C610.4394139440662 419.31008654377865 635.196990388498 386.2587219904627 659.9545668329293 389.97235845712737C684.7121432773607 393.6859949237921 709.4697197217922 440.2921325804343 734.2272961662236 441.2205416971005C758.9848726106551 442.1489508137667 796.1212372773023 403.15576791378714 808.500025499518 395.54281315712444 " transform="rotate(114, 400, 400)"></path><path d="M2.2500027587197877 407.5926115428899C14.303033396140364 399.63761132219236 50.46212530840212 360.766587516511 74.56818658324326 359.86261021870445C98.67424785808441 358.9586329208979 122.78030913292557 401.26477045824413 146.88637040776675 402.16874775605066C170.9924316826079 403.0727250538572 195.09849295744903 364.3824967077372 219.2045542322902 365.2864740055437C243.3106155071314 366.19045130335024 267.41667678197257 404.1574978112251 291.5227380568137 407.5926115428899C315.6287993316549 411.02772527455477 339.734860606496 383.9084063403585 363.8409218813372 385.8971563955329C387.94698315617836 387.8859064507073 412.0530444310195 419.1635209548137 436.15910570586067 419.52511187393634C460.2651669807018 419.88670279305893 484.371228255543 388.2474973698299 508.47728953038416 388.0667019102686C532.5833508052252 387.8859064507073 556.6894120800665 418.07874819744586 580.7954733549076 418.44033911656845C604.9015346297488 418.80193003569104 629.0075959045901 386.6203382337781 653.1136571794311 390.2362474250043C677.2197184542722 393.85215661623045 701.3257797291135 439.2318169661189 725.4318410039547 440.1357942639255C749.5379022787956 441.03977156173204 785.6969941910575 403.0727250538572 797.750024828478 395.66011121184357 " transform="rotate(111, 400, 400)"></path><path d="M13.000002684159796 407.38740386661595C24.72727573678523 399.64740365188317 59.90909489466152 361.82694805716613 83.36364099991238 360.9474025782192C106.81818710516325 360.0678570992723 130.27273321041406 401.2305855139876 153.72727931566493 402.1101309929345C177.1818254209158 402.9896764718814 200.63637152616664 365.34512997295377 224.09091763141754 366.2246754519007C247.5454637366684 367.1042209308476 271.0000098419193 404.0451310466177 294.4545559471701 407.38740386661595C317.90910205242096 410.7296766866142 341.3636481576718 384.343312318207 364.81819426292265 386.27831237189014C388.2727403681735 388.21331242557335 411.7272864734244 418.6455859971364 435.1818325786752 418.9974041887151C458.63637868392607 419.3492223802939 482.09092478917694 388.56513061715214 505.5454708944278 388.38922152136274C529.0000169996787 388.21331242557335 552.4545631049295 417.5901314224001 575.9091092101804 417.9419496139788C599.3636553154312 418.2937678055576 622.8182014206823 386.9819487550477 646.272747525933 390.5001306708353C669.7272936311838 394.0183125866229 693.1818397364348 438.17149562975766 716.6363858416856 439.05104110870457C740.0909319469364 439.93058658765153 775.2727511048126 402.9896764718814 787.0000241574381 395.77740354451674 " transform="rotate(108, 400, 400)"></path><path d="M23.750002609599804 407.1822000050392C35.15151807743008 399.65719979627124 69.35606448092092 362.88731241251855 92.15909541658147 362.03219875243127C114.96212635224202 361.17708509234404 137.76515728790255 401.1964043844283 160.56818822356314 402.05151804451555C183.3712191592237 402.90663170460283 206.17425009488426 366.30776705286763 228.97728103054482 367.1628807129549C251.78031196620537 368.0179943730422 274.58334290186593 403.93276809670755 297.3863738375265 407.1822000050392C320.18940477318705 410.43163191337084 342.99243570884755 384.7782221107527 365.7954666445081 386.6594721629447C388.5984975801687 388.54072221513667 411.4015285158292 418.1276548541563 434.20455945148984 418.4697003181912C457.0075903871504 418.81174578222607 479.8106213228109 388.8827676791716 502.6136522584716 388.71174494715416C525.416683194132 388.54072221513667 548.2197141297926 417.10151846205156 571.0227450654531 417.4435639260864C593.8257760011137 417.78560939012135 616.6288069367744 387.3435630910145 639.4318378724349 390.7640177313636C662.2348688080954 394.1844723717127 685.037899743756 437.11117810809367 707.8409306794165 437.96629176818095C730.643961615077 438.82140542826824 764.8485080185678 402.90663170460283 776.2500234863982 395.89469969188724 " transform="rotate(105, 400, 400)"></path><path d="M34.5000025350398 406.9769923287652C45.575760418074935 399.666992125962 78.80303406718032 363.9476729531737 100.95454983325055 363.1169911119461C123.10606559932083 362.28630927071845 145.25758136539105 401.1622194401717 167.40909713146132 401.9929012813994C189.5606128975316 402.82358312262704 211.71212866360185 367.2704003180843 233.8636444296721 368.1010821593119C256.0151601957424 368.93176400053954 278.16667596181264 403.8204013321002 300.3181917278829 406.9769923287652C322.46970749395314 410.1335833254302 344.6212232600234 385.2131280886012 366.77273902609363 387.040628139302C388.9242547921639 388.8681281900028 411.0757705582341 417.6097198964789 433.22728632430443 417.94199263296997C455.3788020903747 418.27426536946103 477.5303178564449 389.20040092649384 499.6818336225151 389.0342645582483C521.8333493885855 388.8681281900028 543.9848651546557 416.6129016870058 566.1363809207259 416.94517442349684C588.2878966867961 417.27744715998784 610.4394124528666 387.70517361228406 632.5909282189367 391.02790097719463C654.742443985007 394.35062834210515 676.8939597510773 436.0508567717324 699.0454755171475 436.88153861296007C721.1969912832177 437.7122204541877 754.424264932323 402.82358312262704 765.5000228153582 396.0119920245604 " transform="rotate(102, 400, 400)"></path><path d="M45.250002460479806 406.7717865598398C56.00000275871979 399.67678636300144 88.25000365343973 365.0080354011775 109.75000424991967 364.2017853788095C131.25000484639963 363.39553535644154 152.75000544287957 401.1280364032638 174.25000603935953 401.93428642563185C195.75000663583947 402.74053644799983 217.25000723231943 368.2330354906495 238.75000782879937 369.0392855130175C260.25000842527936 369.8455355353855 281.7500090217593 403.70803647484144 303.2500096182393 406.7717865598398C324.7500102147192 409.8355366448382 346.25001081119916 385.6480359737983 367.7500114076791 387.4217860230079C389.25001200415903 389.19553607221746 410.75001260063897 417.0917868461502 432.25001319711896 417.41428685509743C453.75001379359895 417.7367868640446 475.2500143900789 389.51803608116467 496.7500149865589 389.35678607669104C518.2500155830388 389.19553607221746 539.7500161795188 416.1242868193086 561.2500167759987 416.4467868282558C582.7500173724786 416.769286837203 604.2500179689587 388.0667860409023 625.7500185654386 391.29178613037425C647.2500191619185 394.51678621984627 668.7500197583985 434.9905373427198 690.2500203548784 435.79678736508777C711.7500209513584 436.60303738745574 744.0000218460783 402.74053644799983 754.7500221443182 396.1292862645823 " transform="rotate(99, 400, 400)"></path><path d="M56.000002385919814 406.5665807909145C66.42424509936464 399.6865806000409 97.69697323969913 366.06839784918134 118.54545866658879 365.28657964567293C139.3939440934784 364.5047614421646 160.24242952036806 401.0938533663559 181.09091494725772 401.87567156986427C201.93940037414737 402.6574897733726 222.78788580103702 369.19567066321474 243.6363712279267 369.97748886672315C264.4848566548163 370.7593070702315 285.333342081706 403.5956716175827 306.1818275085957 406.5665807909145C327.0303129354853 409.5374899642462 347.8787983623749 386.0829438589954 368.72728378926456 387.8029439067138C389.57576921615424 389.52294395443215 410.42425464304387 416.5738537958215 431.27274006993355 416.88658107722483C452.1212254968232 417.1993083586282 472.9697109237128 389.83567123583555 493.81819635060253 389.6793075951338C514.6666817774922 389.52294395443215 535.5151672043818 415.63567195161147 556.3636526312714 415.9483992330148C577.212138058161 416.26112651441815 598.0606234850509 388.42839846952046 618.9091089119405 391.5556712835539C639.75759433883 394.6829440975874 660.6060797657198 433.9302179137071 681.4545651926094 434.71203611721546C702.303050619499 435.49385432072387 733.5757787598335 402.6574897733726 744.0000214732783 396.2465805046041 " transform="rotate(96, 400, 400)"></path><path d="M66.75000231135982 406.3613769293377C76.84848744000949 399.69637674442896 107.14394282595853 367.12876220453376 127.34091308325787 366.37137581988503C147.53788334055724 365.6139894352363 167.73485359785656 401.05967223679664 187.93182385515593 401.81705862144537C208.12879411245527 402.5744450060941 228.32576436975464 370.15830774312866 248.52273462705398 370.9156941277774C268.71970488435335 371.6730805124261 288.9166751416527 403.4833086676726 309.11364539895203 406.3613769293377C329.3106156562514 409.2394451910029 349.5075859135507 386.51785365154115 369.7045561708501 388.1841036977683C389.90152642814945 389.8503537439955 410.09849668544877 416.05592265284145 430.29546694274813 416.3588772067009C450.49243720004745 416.6618317605604 470.6894074573468 390.153308297855 490.8863777146462 390.00183102092524C511.08334797194544 389.8503537439955 531.2803182292449 415.14705899126295 551.4772884865442 415.45001354512243C571.6742587438434 415.7529680989819 591.871229001143 388.7900128054873 612.0681992584423 391.8195583440822C632.2651695157416 394.8491038826771 652.462139773041 432.8699003920431 672.6591100303403 433.62728677669185C692.8560802876397 434.3846731613406 723.1515356735887 402.5744450060941 733.2500208022384 396.3638766519746 " transform="rotate(93, 400, 400)"></path><path d="M77.50000223679983 406.1561711604124C87.27272978065436 399.7061709814684 116.59091241221793 368.18912465253754 136.13636749992696 367.45617008674844C155.68182258763602 366.72321552095934 175.22727767534505 401.02548919988874 194.7727327630541 401.75844376567784C214.31818785076317 402.49139833146694 233.86364293847222 371.1209429156939 253.40909802618128 371.853897481483C272.9545531138903 372.5868520472721 292.50000820159937 403.3709438104138 312.04546328930843 406.1561711604124C331.5909183770175 408.9413985104109 351.1363734647265 386.95276153673825 370.68182855243555 388.5652615814742C390.2272836401446 390.1777616262102 409.77273872785366 415.5379896025127 429.31819381556267 415.8311714288283C448.8636489032718 416.124353255144 468.4091039909808 390.47094345252583 487.95455907868984 390.324352539368C507.50001416639884 390.1777616262102 527.045469254108 414.6584441235658 546.590924341817 414.9516259498814C566.136379429526 415.24480777619704 585.6818345172352 389.1516252341055 605.2272896049442 392.08344349726184C624.7727446926532 395.0152617604182 644.3181997803623 431.8095809630305 663.8636548680713 432.5425355288196C683.4091099557803 433.2754900946087 712.727292587344 402.49139833146694 722.5000201311984 396.4811708919964 " transform="rotate(90, 400, 400)"></path><path d="M88.25000216223984 405.950965391487C97.69697212129921 399.7159652185078 126.03788199847733 369.24948710054133 144.93182191659608 368.54096435361186C163.82576183471483 367.83244160668244 182.71970175283354 400.99130616298083 201.6136416709523 401.69982890991025C220.50758158907107 402.4083516568397 239.4015215071898 372.0835780882592 258.29546142530853 372.7921008351886C277.18940134342733 373.50062358211807 296.0833412615461 403.25857895315505 314.9772811796648 405.950965391487C333.8712210977835 408.6433518298189 352.76516101590227 387.38766942193536 371.659100934021 388.9464194651801C390.55304085213976 390.5051695084249 409.4469807702585 415.020056552184 428.3409206883773 415.3034656509558C447.23486060649606 415.58687474972754 466.1288005246148 390.7885786071967 485.02274044273355 390.6468740578108C503.91668036085224 390.5051695084249 522.8106202789711 414.16982925586865 541.7045601970897 414.45323835464046C560.5985001152085 414.7366474534122 579.4924400333273 389.51323766272367 598.3863799514461 392.3473286504415C617.2803198695648 395.1814196381593 636.1742597876835 430.7492615340178 655.0681997058023 431.4577842809473C673.962139623921 432.16630702787677 702.3030495010992 402.4083516568397 711.7500194601585 396.5984651320182 " transform="rotate(87, 400, 400)"></path><path d="M99.00000208767983 405.7457615299103C108.12121446194406 399.72576136289587 135.48485158473673 370.30985145589375 153.72727633326517 369.62576052782396C171.96970108179363 368.9416695997541 190.21212583032207 400.95712503342156 208.4545505788505 401.64121596149135C226.69697532737894 402.32530688956115 244.9394000759074 373.04621516817303 263.1818248244358 373.7303060962428C281.4242495729643 374.4143970243127 299.66667432149274 403.14621600324494 317.90909907002117 405.7457615299103C336.15152381854966 408.34530705657556 354.39394856707804 387.82257921448104 372.6363733156065 389.3275792562347C390.87879806413497 390.8325792979883 409.1212228126634 414.5021254092039 427.36364756119184 414.7757617804318C445.6060723097203 415.0493981516598 463.84849705824877 391.10621566921617 482.0909218067772 390.9693974836022C500.3333465553056 390.8325792979883 518.575771303834 413.68121629552013 536.8181960523625 413.9548526667481C555.0606208008909 414.228489037976 573.3030455494195 389.87485199869053 591.5454702979479 392.61121571096976C609.7878950464763 395.34757942324904 628.0303197950047 429.68894401235383 646.2727445435332 430.3730349404237C664.5151692920616 431.0571258684935 691.8788064148544 402.32530688956115 701.0000187891185 396.7157612793887 " transform="rotate(84, 400, 400)"></path><path d="M109.75000201311984 405.54055385363625C118.54545680258892 399.7355536925867 144.93182117099616 371.3702119965489 162.52273074993428 370.71055288733874C180.1136403288724 370.05089377812857 197.70454990781053 400.922940089165 215.2954594867487 401.5825991983752C232.88636906568684 402.24225830758536 250.47727864462502 374.00884843338963 268.06818822356314 374.6685075425998C285.65909780250126 375.32816665181 303.25000738143945 403.0338492386376 320.8409169603776 405.54055385363625C338.43182653931575 408.04725846863494 356.0227361182539 388.25748519232957 373.613645697192 389.70873523259195C391.2045552761301 391.1599852728543 408.79546485506825 413.98419045152656 426.3863744340064 414.24805409521065C443.9772840129446 414.51191773889474 461.56819359188273 391.4238489165384 479.15910317082086 391.2919170946964C496.750012749759 391.1599852728543 514.3409223286972 413.19259952047435 531.9318319076353 413.45646316415844C549.5227414865733 413.7203268078425 567.1136510655117 390.23646251996007 584.7045606444498 392.8750989568008C602.2954702233878 395.5137353936415 619.886379802326 428.6286226759926 637.4772893812641 429.28828178520274C655.0681989602023 429.94794089441297 681.4545633286095 402.24225830758536 690.2500181180785 396.83305361206186 " transform="rotate(81, 400, 400)"></path><path d="M120.50000193855985 405.33534999205955C128.96969914323375 399.74534983697475 154.37879075725556 372.4305763519013 171.31818516660337 371.7953490615508C188.25757957595124 371.16012177120024 205.19697398529905 400.8887589596057 222.1363683946469 401.52398624995624C239.07576280399473 402.1592135403068 256.0151572133426 374.97148551330355 272.9545516226904 375.6067128036541C289.8939460320383 376.24194009400463 306.8333404413861 402.92148628872746 323.77273485073397 405.33534999205955C340.71212926008184 407.7492136953916 357.6515236694296 388.69239498487525 374.59091807877746 390.0898950236465C391.53031248812533 391.48739506241765 408.46970689747315 413.4662593085465 425.409101306821 413.72035022468674C442.3484957161689 413.9744411408269 459.2878901255167 391.7414859785579 476.2272845348645 391.6144405204878C493.1666789442124 391.48739506241765 510.10607335356025 412.7039865601258 527.0454677629081 412.95807747626606C543.9848621722558 413.2121683924063 560.9242565816038 390.59807685592693 577.8636509909516 393.1389860173291C594.8030454002994 395.6798951787313 611.7424398096473 427.5683051543286 628.6818342189952 428.2035324446791C645.6212286283429 428.83875973502967 671.0303202423647 402.1592135403068 679.5000174470387 396.95034975943236 " transform="rotate(78, 400, 400)"></path><path d="M131.25000186399984 405.1301404084369C139.39394148387862 399.75514025931693 163.82576034351496 373.4909349852079 180.1136395832725 372.880139513717C196.40151882303002 372.26934404222607 212.68939806278755 400.8545721080005 228.97727730254508 401.46536757949144C245.26515654230263 402.07616305098236 261.5530357820602 375.9341168711715 277.84091502181775 376.5449123426624C294.1287942615753 377.15570781415335 310.41667350133287 402.80911761677146 326.70455274109037 405.1301404084369C342.99243198084787 407.45116320010237 359.2803112206054 389.1272990553751 375.568190460363 390.4710490926551C391.8560697001205 391.8147991299351 408.14394893987804 412.9483224435205 424.4318281796356 413.1926406321169C440.7197074193931 413.43695882071324 457.00758665915066 392.0591173185315 473.2954658989082 391.9369582242333C489.5833451386657 391.8147991299351 505.8712243784233 412.2153678777314 522.1591036181808 412.4596860663278C538.4469828579383 412.70400425492414 554.7348620976959 390.95968546984784 571.0227413374535 393.40286735581145C587.310620577211 395.8460492417751 603.5984998169686 426.50798191061864 619.8863790567261 427.11877738210956C636.1742582964837 427.7295728536005 660.6060771561199 402.07616305098236 668.7500167759987 397.0676401847569 " transform="rotate(75, 400, 400)"></path><path d="M142.00000178943986 404.9249384542088C149.8181838245235 399.7649383110536 173.27272992977436 374.55130124790895 188.90909399994158 373.96493759527766C204.54545807010882 373.37857394264637 220.18182214027604 400.8203928857899 235.8181862104433 401.4067565384212C251.45455028061053 401.9931201910524 267.0909143507778 376.896755858434 282.727278420945 377.4831195110653C298.3636424911123 378.0694831636966 314.0000065612795 402.69675657421 329.63637063144677 404.9249384542088C345.272734701614 407.15312033420764 360.9090987717812 389.56221075526946 376.5454628419484 390.85221079105827C392.18182691211564 392.1422108268471 407.81819098228294 412.4303932078891 423.45455505245013 412.6649386689416C439.09091912261744 412.8994841299941 454.7272831927846 392.3767562878996 470.36364726295193 392.25948355737336C486.00001133311906 392.1422108268471 501.63637540328637 411.7267568247315 517.2727394734536 411.9613022857841C532.9091035436207 412.19584774683653 548.5454676137881 391.3213017131633 564.1818316839554 393.6667563236884C579.8181957541226 396.0122109342135 595.4545598242898 425.4476662963033 611.090923894457 426.0340299489346C626.7272879646243 426.62039360156587 650.1818340698751 401.9931201910524 658.0000161049587 397.184938239476 " transform="rotate(72, 400, 400)"></path><path d="M152.74998645609082 404.7197307779348C160.2424109063793 399.7747306407444 182.7196842572447 375.6116617885641 197.70453315782163 375.04972995479244C212.68938205839856 374.48779812102083 227.6742309589755 400.78620794153335 242.65907985955243 401.34813977530496C257.64392876012937 401.9100716090766 272.6287776607063 377.85938912365066 287.61362656128324 378.42132095742227C302.5984754618602 378.98325279119393 317.5833243624371 402.58438980960256 332.56817326301405 404.7197307779348C347.553022163591 406.855071746267 362.5378710641679 389.99711673311793 377.52271996474485 391.23336676741553C392.5075688653218 392.46961680171313 407.4924177658987 411.9124582502117 422.4772666664757 412.13723098372037C437.4621155670526 412.362003717229 452.4469644676296 392.69438953522183 467.43181336820646 392.58200316846745C482.4166622687834 392.46961680171313 497.4015111693604 411.23814004968574 512.3863600699373 411.46291278319444C527.3712089705142 411.6876855167031 542.3560578710913 391.6829122344329 557.3409067716682 393.9306395695194C572.325755672245 396.1783669046059 587.3106045728221 424.387344959942 602.295453473399 424.9492767937137C617.2803023739758 425.5112086274853 639.7575757248412 401.9100716090766 647.2500001751297 397.3022305721492 " transform="rotate(69, 400, 400)"></path><path d="M163.4999863815308 404.5145269163581C170.66665324702413 399.78452678513247 192.1666538435041 376.6720261439165 206.49998757449072 376.13452612900454C220.83332130547737 375.5970261140925 235.16665503646396 400.7520268119741 249.49998876745062 401.28952682688606C263.83332249843727 401.82702684179804 278.1666562294239 378.8220262035645 292.4999899604105 379.3595262184765C306.83332369139714 379.8970262333885 321.1666574223838 402.47202685969245 335.49999115337044 404.5145269163581C349.8333248843571 406.55702697302365 364.1666586153437 390.4320265256637 378.4999923463304 391.6145265584701C392.833326077317 392.7970265912765 407.1666598083036 411.3945271072316 421.49999353929024 411.60952711319646C435.8333272702769 411.82452711916125 450.1666610012635 393.0120265972413 464.4999947322502 392.90452659425887C478.8333284632368 392.7970265912765 493.1666621942234 410.7495270893373 507.49999592521004 410.96452709530206C521.8333296561966 411.17952710126684 536.1666633871835 392.0445265703997 550.4999971181701 394.1945266300477C564.8333308491566 396.34452668969567 579.1666645801433 423.32702743827804 593.49999831113 423.86452745319C607.8333320421165 424.402027468102 629.3333326385964 401.82702684179804 636.4999995040898 397.4195267195197 " transform="rotate(66, 400, 400)"></path><path d="M174.2499863069708 404.30931924008405C181.09089558766897 399.7943191148233 201.6136234297635 377.7323866845717 215.2954419911598 377.2193184885193C228.97726055255617 376.70625029246696 242.6590791139525 400.71784186771754 256.3408976753488 401.2309100637699C270.02271623674517 401.74397825982226 283.7045347981415 379.7846594687811 297.38635335953785 380.2977276648335C311.06817192093416 380.81079586088583 324.74999048233053 402.3596600950851 338.43180904372684 404.30931924008405C352.11362760512316 406.258978385083 365.79544616651947 390.86693250351215 379.4772647279158 391.9956825348274C393.15908328931215 393.12443256614256 406.8409018507085 410.8765921495543 420.52272041210483 411.08181942797523C434.20453897350114 411.2870467063962 447.8863575348975 393.3296598445635 461.5681760962939 393.227046205353C475.24999465769014 393.12443256614256 488.9318132190865 410.2609103142915 502.6136317804828 410.4661375927124C516.2954503418791 410.67136487113333 529.9772689032756 392.4061370916693 543.6590874646719 394.4584098758787C557.3409060260682 396.51068266008815 571.0227245874645 422.2667061019167 584.7045431488608 422.77977429796914C598.3863617102571 423.2928424940215 618.9090895523517 401.74397825982226 625.7499988330499 397.53681905219287 " transform="rotate(63, 400, 400)"></path><path d="M184.99998623241083 404.10411537850734C191.51513792831383 399.80411525921136 211.0605930160229 378.7927510399241 224.09089640782892 378.30411466273137C237.12119979963495 377.8154782855387 250.15150319144098 400.68366073815827 263.181806583247 401.17229711535094C276.21210997505307 401.6609334925437 289.24241336685907 380.74729654869503 302.2727167586651 381.23593292588777C315.3030201504712 381.72456930308044 328.3333235422772 402.24729714517497 341.3636269340832 404.10411537850734C354.39393032588924 405.96093361183966 367.42423371769524 391.3018422960579 380.4545371095013 392.3768423258819C393.4848405013073 393.4518423557059 406.5151438931134 410.3586610065742 419.5454472849194 410.5541155574513C432.5757506767254 410.7495701083284 445.6060540685315 393.647296906583 458.6363574603375 393.54956963114444C471.6666608521435 393.4518423557059 484.6969642439496 409.772297353943 497.7272676357556 409.96775190482003C510.7575710275616 410.16320645569715 523.7878744193677 392.7677514276361 536.8181778111737 394.72229693640696C549.8484812029798 396.6768424451779 562.8787845947858 421.20638858025274 575.9090879865919 421.69502495744547C588.9393913783978 422.1836613346382 608.4848464661069 401.6609334925437 614.9999981620099 397.65411519956336 " transform="rotate(60, 400, 400)"></path><path d="M195.74998615785083 403.8989077022333C201.9393802689587 399.8139075889021 220.5075626022823 379.85311158057925 232.88635082449804 379.3889070222462C245.26513904671376 378.9247024639131 257.6439272689295 400.64947579390173 270.0227154911452 401.1136803522348C282.40150371336097 401.5778849105679 294.78029193557666 381.70992981391163 307.1590801577924 382.17413437224474C319.53786838000815 382.6383389305778 331.91665660222384 402.1349303805676 344.29544482443964 403.8989077022333C356.67423304665533 405.6628850238991 369.053021268871 391.73674827390636 381.43180949108677 392.7579983022392C393.8105977133025 393.779248330572 406.18938593551826 409.8407260488969 418.568174157734 410.0264078722301C430.9469623799497 410.21208969556335 443.32575060216544 393.9649301539052 455.7045388243812 393.8720892422386C468.0833270465969 393.779248330572 480.4621152688127 409.2836805788972 492.84090349102837 409.4693624022304C505.21969171324406 409.65504422556364 517.5984799354599 393.1293619489056 529.9772681576756 394.986180182238C542.3560563798912 396.8429984155704 554.734844602107 420.1460672438915 567.1136328243227 420.6102718022246C579.4924210465385 421.07447636055764 598.0606033798621 401.5778849105679 604.2499974909699 397.77140753223654 " transform="rotate(57, 400, 400)"></path><path d="M206.49998608329082 403.6937038406566C212.36362260960357 399.8237037332902 229.9545321885417 380.91347593593173 241.68180524116713 380.47370319645825C253.40907829379256 380.0339304569848 265.136351346418 400.6152946643424 276.8636243990434 401.0550674038159C288.59089745166887 401.4948401432893 300.31817050429424 382.67256689382555 312.04544355691974 383.112339633299C323.7727166095451 383.5521123727724 335.4999896621706 402.0225674306575 347.227262714796 403.6937038406566C358.9545357674214 405.36484025065573 370.68180882004685 392.1716580664521 382.40908187267223 393.1391580932937C394.1363549252977 394.1066581201353 405.8636279779231 409.3227949059168 417.59090103054854 409.4987040017062C429.318174083174 409.6746130974956 441.0454471357994 394.2825672159247 452.77272018842484 394.19461266803C464.4999932410503 394.1066581201353 476.2272662936757 408.79506761854867 487.95453934630115 408.97097671433806C499.6818123989265 409.1468858101274 511.4090854515521 393.4909762848725 523.1363585041775 395.2500672427663C534.8636315568028 397.0091582006601 546.5909046094283 419.0857497222275 558.3181776620538 419.5255224617009C570.0454507146792 419.9652952011744 587.6363602936173 401.4948401432893 593.49999681993 397.88870367960703 " transform="rotate(54, 400, 400)"></path><path d="M217.24998600873084 403.4884961643826C222.7878649502484 399.833496062981 239.4015017748011 381.9738364765869 250.4772596578362 381.558495555973C261.55301754087134 381.1431546353592 272.62877542390646 400.58110972008586 283.7045333069416 400.99645064069966C294.78029118997677 401.4117915613135 305.85604907301183 383.63520015904214 316.931806956047 384.05054107965594C328.00756483908214 384.46588200026974 339.08332272211726 401.91020066605006 350.1590806051524 403.4884961643826C361.2348384881875 405.0667916627151 372.31059637122263 392.60656404430057 383.38635425425775 393.52031406965096C394.4621121372929 394.43406409500136 405.537870020328 408.8048599482395 416.6136279033632 408.97099631648496C427.68938578639825 409.1371326847305 438.7651436694334 394.6002004632469 449.8409015524685 394.51713227912416C460.9166594355037 394.43406409500136 471.9924173185388 408.3064508435029 483.06817520157387 408.4725872117484C494.143933084609 408.63872357999395 505.2196909676442 393.852586806142 516.2954488506793 395.5139504885973C527.3712067337144 397.1753141710526 538.4469646167496 418.0254283858662 549.5227224997847 418.44076930648004C560.5984803828198 418.85611022709384 577.2121172073724 401.4117915613135 582.74999614889 398.0059960122802 " transform="rotate(51, 400, 400)"></path><path d="M227.99998593417087 403.2832923028059C233.21210729089324 399.8432922073691 248.8484713610605 383.0342008319393 259.2727140745053 382.6432917301851C269.69695678795017 382.25238262843095 280.121199501395 400.5469285905266 290.5454422148398 400.93783769228077C300.9696849282846 401.32874679403494 311.3939276417294 384.597837238956 321.8181703551743 384.9887463407102C332.2424130686191 385.37965544246435 342.6666557820639 401.79783771613995 353.0908984955088 403.2832923028059C363.5151412089536 404.76874688947174 373.9393839223984 393.0414738368463 384.3636266358432 393.9014738607055C394.78786934928803 394.76147388456474 405.2121120627329 408.2869288052594 415.6363547761777 408.44329244596105C426.0605974896225 408.5996560866627 436.48484020306734 394.9178375252664 446.9090829165122 394.8396557049156C457.333325629957 394.76147388456474 467.75756834340183 407.81783788315437 478.18181105684664 407.97420152385604C488.60605377029145 408.1305651645577 499.0302964837364 394.2142011421089 509.4545391971812 395.7778375491256C519.878781910626 397.3414739561423 530.3030246240708 416.9651108642022 540.7272673375156 417.35601996595636C551.1515100509605 417.74692906771054 566.7878741211277 401.32874679403494 571.99999547785 398.12329215965065 " transform="rotate(48, 400, 400)"></path><path d="M238.74998585961083 403.07808462653185C243.6363496315381 399.8530845370599 258.2954409473199 384.09456137259446 268.06816849117445 383.7280840896999C277.84089603502895 383.36160680680536 287.61362357888345 400.51274364627005 297.386351122738 400.8792209291646C307.1590786665925 401.24569821205915 316.93180621044706 385.56047050417266 326.70453375430156 385.92694778706715C336.4772612981561 386.2934250699617 346.2499888420106 401.6854709515326 356.0227163858651 403.07808462653185C365.7954439297197 404.4706983015311 375.5681714735742 393.4763798146948 385.3408990174287 394.2826298370628C395.11362656128324 395.0888798594308 404.8863541051378 407.768993847582 414.65908164899224 407.9155847607399C424.4318091928468 408.0621756738977 434.20453673670136 395.2354707725886 443.97726428055586 395.1621753160097C453.74999182441036 395.0888798594308 463.5227193682649 407.3292211081086 473.2954469121194 407.4758120212664C483.0681744559739 407.6224029344242 492.84090199982853 394.57581166337843 502.61362954368303 396.04172079495663C512.3863570875376 397.5076299265348 522.159084631392 415.90478952784093 531.9318121752466 416.2712668107355C541.7045397191011 416.63774409363003 556.3636310348829 401.24569821205915 561.2499948068102 398.2405844923239 " transform="rotate(45, 400, 400)"></path><path d="M249.49998578505085 402.8728798112808C254.06059197218298 399.86287972777365 267.7424105335793 385.15492477427256 276.86362290784353 384.81287931023763C285.9848352821077 384.47083384620277 295.10604765637197 400.47856156303646 304.2272600306362 400.8206070270714C313.3484724049004 401.16265249110626 322.46968477916465 386.5231066304122 331.59089715342884 386.8651520944471C340.7121095276931 387.207197558482 349.83332190195733 401.57310704794816 358.9545342762215 402.8728798112808C368.07574665048577 404.1726525746135 377.19695902474996 393.9112886535662 386.3181713990142 394.663788674443C395.43938377327845 395.4162886953198 404.56059614754264 407.25106175092765 413.68180852180683 407.3878799365416C422.8030208960711 407.52469812215554 431.9242332703353 395.5531068809338 441.04544564459957 395.4846977881268C450.1666580188637 395.4162886953198 459.28787039312795 406.84060719408575 468.4090827673922 406.9774253796997C477.5302951416564 407.1142435653137 486.6515075159207 394.9374250456709 495.7727198901849 396.30560690181056C504.89393226444906 397.6737887579502 514.0151446387133 414.8444710525026 523.1363570129776 415.1865165165375C532.2575693872418 415.5285619805724 545.9393879486381 401.16265249110626 550.4999941357702 398.35787968602 " transform="rotate(42, 400, 400)"></path><path d="M260.2499857104909 402.66767499602975C264.48483431282784 399.87267491848735 277.1893801198387 386.21528817595066 285.6590773245126 385.8976745307754C294.12877452918656 385.5800608856001 302.5984717338605 400.4443794798029 311.06816893853437 400.7619931249781C319.5378661432083 401.0796067701534 328.00756334788224 387.48574275665175 336.4772605525561 387.80335640182705C344.94695775723005 388.1209700470023 353.416654961904 401.46074314436373 361.8863521665779 402.66767499602975C370.35604937125186 403.8746068476958 378.82574657592573 394.3461974924376 387.29544378059967 395.04494751182324C395.7651409852736 395.74369753120885 404.2348381899475 406.7331296542732 412.7045353946214 406.86017511234337C421.17423259929535 406.98722057041346 429.6439298039693 395.87074298927894 438.1136270086432 395.80722026024387C446.58332421331716 395.74369753120885 455.0530214179911 406.3519932800629 463.52271862266497 406.479038738133C471.99241582733885 406.60608419620314 480.46211303201284 395.29903842796347 488.9318102366867 396.56949300866455C497.40150744136065 397.83994758936564 505.8712046460346 413.78415257716426 514.3409018507085 414.10176622233956C522.8105990553825 414.41937986751486 535.5151448623933 401.0796067701534 539.7499934647303 398.4751748797162 " transform="rotate(39, 400, 400)"></path><path d="M270.9999856359309 402.4624682734301C274.90907665347265 399.8824682018525 286.63634970609814 387.27564967028013 294.4545317411817 386.9824678439645C302.27271377626533 386.6892860176489 310.09089581134896 400.41019548922065 317.9090778464326 400.7033773155363C325.7272598815162 400.9965591418519 333.5454419165998 388.4483769755427 341.36362395168345 388.74155880185833C349.1818059867671 389.03474062817395 356.9999880218507 401.3483773334307 364.8181700569343 402.4624682734301C372.63635209201794 403.5765592134295 380.4545341271015 394.7811044239604 388.27271616218513 395.4261044418548C396.09089819726876 396.0711044597492 403.9090802323524 406.21519565027023 411.727262267436 406.33246838079646C419.5454443025196 406.44974111132274 427.36362633760325 396.1883771902755 435.1818083726869 396.12974082501233C442.9999904077705 396.0711044597492 450.8181724428541 405.86337745869145 458.63635447793774 405.9806501892177C466.4545365130213 406.09792291974395 474.272718548105 395.6606499029073 482.0909005831886 396.83337720816985C489.90908261827224 398.00610451343243 497.72726465335586 412.7238321944773 505.5454466884394 413.01701402079294C513.3636287235231 413.3101958471086 525.0909017761485 400.9965591418519 528.9999927936904 398.59246816606367 " transform="rotate(36, 400, 400)"></path><path d="M281.7500008201599 402.2572625045047C285.3333342529066 399.8922624388919 296.08333455114655 388.336012118284 303.25000141663986 388.0672621108279C310.41666828213323 387.79851210337193 317.5833351476265 400.3760124523127 324.75000201311985 400.64476245976874C331.91666887861317 400.91351246722473 339.0833357441065 389.41101214810794 346.2500026095998 389.67976215556394C353.4166694750931 389.9485121630199 360.58333634058647 401.23601247617194 367.7500032060798 402.2572625045047C374.9166700715731 403.2785125328375 382.0833369370664 395.2160123091575 389.2500038025597 395.8072623255607C396.41667066805303 396.3985123419639 403.58333753354634 405.6972625999415 410.75000439903965 405.8047626029239C417.91667126453297 405.91226260590634 425.0833381300263 396.5060123449463 432.2500049955196 396.4522623434551C439.4166718610129 396.3985123419639 446.5833387265062 405.3747625909943 453.7500055919995 405.4822625939767C460.91667245749284 405.58976259695913 468.08333932298626 396.02226233152555 475.2500061884796 397.0972623613495C482.41667305397283 398.17226239117355 489.5833399194662 411.6635127654647 496.7500067849595 411.9322627729207C503.91667365045276 412.2010127803767 514.6666739486927 400.91351246722473 518.2500073814394 398.70976240608553 " transform="rotate(33, 400, 400)"></path><path d="M292.50000074559995 402.0520576892537C295.75757659355145 399.9020576296057 305.530304137406 389.3963755199621 312.045455833309 389.1520573313657C318.560607529212 388.90773914276934 325.075759225115 400.3418303690791 331.590910921018 400.5861485576755C338.10606261692107 400.83046674627184 344.62121431282407 390.3736482743475 351.1363660087271 390.61796646294385C357.6515177046301 390.8622846515402 364.1666694005331 401.12364857258746 370.6818210964361 402.0520576892537C377.1969727923391 402.98046680591983 383.7121244882421 395.65092114802894 390.2272761841452 396.1884211629409C396.7424278800482 396.72592117785297 403.25757957595124 405.17933050328713 409.77273127185424 405.27705777872563C416.28788296775724 405.3747850541642 422.80303466366024 396.82364845329147 429.31818635956324 396.7747848155722C435.83333805546624 396.72592117785297 442.34848975136936 404.88614867697146 448.86364144727236 404.98387595241C455.37879314317536 405.0816032278486 461.89394483907836 396.38387571381804 468.40909653498136 397.3611484682035C474.9242482308844 398.3384212225889 481.4393999267874 410.6031942901264 487.9545516226905 410.84751247872276C494.4697033185934 411.0918306673191 504.242430862448 400.83046674627184 507.5000067103995 398.82705759978165 " transform="rotate(30, 400, 400)"></path><path d="M303.25000067103997 401.8468519203283C306.1818189341963 399.9118518666451 314.97727372366535 390.45673796796586 320.8409102499781 390.2368515982291C326.70454677629084 390.0169652284924 332.56818330260353 400.3076473321712 338.4318198289162 400.52753370190794C344.29545635522896 400.7474200716447 350.15909288154165 391.3362834469128 356.0227294078544 391.55616981664946C361.8863659341671 391.7760561863862 367.75000246047983 401.0112837153287 373.6136389867925 401.8468519203283C379.47727551310527 402.68242012532784 385.34091203941796 396.08582903322605 391.20454856573065 396.5695790466469C397.0681850920434 397.05332906006765 402.9318216183561 404.6613974529584 408.7954581446688 404.7493520008531C414.6590946709815 404.8373065487478 420.5227311972942 397.14128360796235 426.38636772360695 397.097306334015C432.2500042499197 397.05332906006765 438.1136407762324 404.3975338092743 443.9772773025451 404.485488357169C449.84091382885777 404.5734429050637 455.70455035517057 396.7454881424362 461.56818688148326 397.6250336213831C467.43182340779595 398.50457910033003 473.2954599341087 409.5428748611137 479.15909646042144 409.76276123085046C485.0227329867341 409.9826476005872 493.81818777620316 400.7474200716447 496.7500060393595 398.9443518398035 " transform="rotate(27, 400, 400)"></path><path d="M314.00000059647994 401.64164615140294C316.6060612748412 399.9216461036845 324.4242433099248 391.51710041596965 329.6363646666472 391.32164586509253C334.8484860233696 391.1261913142155 340.06060738009205 400.2734642952633 345.27272873681443 400.4689188461404C350.4848500935368 400.66437339701747 355.69697145025924 392.298918619478 360.9090928069817 392.4943731703551C366.12121416370405 392.6898277212322 371.3333355204265 400.89891885807 376.5454568771489 401.64164615140294C381.7575782338713 402.3843734447359 386.96969959059373 396.52073691842315 392.18182094731617 396.9507369303528C397.39394230403855 397.38073694228234 402.606063660761 404.1434644026297 407.8181850174834 404.22164622298055C413.0303063742058 404.2998280433314 418.24242773092817 397.4589187626332 423.45454908765066 397.4198278524578C428.66667044437304 397.38073694228234 433.8787918010954 403.90891894157716 439.09091315781785 403.987100761928C444.3030345145403 404.0652825822788 449.5151558712627 397.10710057105445 454.72727722798516 397.8889187745628C459.93939858470753 398.67073697807115 465.1515199414299 408.4825554321011 470.36364129815234 408.6780099829782C475.5757626548748 408.87346453385527 483.3939446899584 400.66437339701747 486.00000536831953 399.0616460798253 " transform="rotate(24, 400, 400)"></path><path d="M324.75000052191996 401.4364399056404C327.030303615486 399.9314398638868 333.8712128961842 392.5774623871363 338.4318190833163 392.40643965511885C342.9924252704484 392.23541692310135 347.5530314575805 400.23928078151823 352.11363764471264 400.41030351353567C356.6742438318447 400.58132624555316 361.2348500189769 393.2615533152061 365.79545620610895 393.43257604722356C370.3560623932411 393.603598779241 374.9166685803732 400.7865535239741 379.47727476750526 401.4364399056404C384.03788095463744 402.08632628730675 388.5984871417695 396.9556443267831 393.15909332890163 397.3318943372215C397.71969951603376 397.7081443476599 402.2803057031658 403.6255308754638 406.84091189029795 403.6939399682708C411.40151807743007 403.76234906107777 415.9621242645622 397.7765534404669 420.5227304516943 397.7423488940634C425.0833366388264 397.7081443476599 429.6439428259585 403.4203035970429 434.2045490130906 403.4887126898499C438.7651552002227 403.55712178265685 443.3257613873549 397.46871252283546 447.88636757448694 398.1528034509053C452.44697376161906 398.8368943789751 457.0075799487512 407.4222355262513 461.5681861358833 407.59325825826875C466.12879232301543 407.76428099028624 472.9697016037136 400.58132624555316 475.2500046972796 399.17893984301 " transform="rotate(21, 400, 400)"></path><path d="M335.50000044736 401.23123413671505C337.45454595613086 399.94123410092624 343.3181824824436 393.63782483514007 347.2272734999854 393.49123392198226C351.1363645175272 393.34464300882445 355.045455535069 400.2050977446103 358.95454655261085 400.35168865776814C362.8636375701526 400.49827957092594 366.7727285876945 394.22418848777136 370.6818196052362 394.37077940092917C374.5909106227781 394.517370314087 378.50000164031985 400.67418866671534 382.4090926578617 401.23123413671505C386.3181836754035 401.78827960671475 390.2272746929453 397.3905522119802 394.1363657104871 397.7130522209274C398.0454567280289 398.0355522298746 401.9545477455707 403.1075978251351 405.86363876311253 403.16623419039826C409.77272978065434 403.22487055566137 413.68182079819616 398.0941885951377 417.59091181573797 398.0648704125062C421.5000028332798 398.0355522298746 425.4090938508216 402.93168872934575 429.3181848683634 402.99032509460886C433.2272758859052 403.048961459872 437.136366903447 397.8303249514537 441.04545792098884 398.4166886040849C444.95454893853065 399.0030522567162 448.86363995607246 406.3619160972387 452.7727309736142 406.5085070103965C456.6818219911561 406.6550979235543 462.5454585174688 400.49827957092594 464.5000040262397 399.29623408303183 " transform="rotate(18, 400, 400)"></path><path d="M346.2499965581027 401.02602836778965C347.87878448207846 399.9510283379657 352.76514825400574 394.69818728314385 356.02272410195724 394.57602818884567C359.28029994990874 394.4538690945475 362.53787579786024 400.1709147077024 365.79545164581174 400.2930738020006C369.05302749376324 400.4152328962988 372.3106033417148 395.1868236603366 375.5681791896663 395.30898275463477C378.8257550376178 395.43114184893295 382.0833308855693 400.5618238094566 385.3409067335208 401.02602836778965C388.5984825814723 401.49023292612276 391.8560584294238 397.8254600971773 395.11363427737535 398.0942101046333C398.3712101253268 398.3629601120893 401.62878597327835 402.5896647748064 404.88636182122985 402.63852841252566C408.14393766918135 402.68739205024497 411.40151351713286 398.4118237498086 414.65908936508436 398.387391930949C417.91666521303586 398.3629601120893 421.1742410609874 402.4430738616486 424.4318169089389 402.49193749936785C427.6893927568904 402.5408011370871 430.9469686048419 398.19193738007186 434.2045444527934 398.6805737572646C437.4621203007449 399.16921013445733 440.71969614869647 405.301596668226 443.97727199664797 405.4237557625242C447.23484784459947 405.5459148568224 452.1212116165267 400.4152328962988 453.7499995405025 399.4135283230537 " transform="rotate(15, 400, 400)"></path><path d="M356.9999964835427 400.82082307570147C358.3030268227233 399.9608230518423 362.21211784026514 395.7585502079848 364.8181785186263 395.6608229325463C367.4242391969875 395.56309565710774 370.03029987534876 400.1367321476316 372.63636055370995 400.2344594230702C375.24242123207114 400.33218669850874 377.8484819104324 396.14945930973903 380.4545425887936 396.24718658517753C383.06060326715476 396.3449138606161 385.666663945516 400.449459429035 388.2727246238772 400.82082307570147C390.8787853022384 401.1921867223679 393.48484598059963 398.2603684592116 396.0909066589608 398.47536846517636C398.696967337322 398.6903684711412 401.30302801568325 402.07173220131483 403.90908869404444 402.1108231114903C406.51514937240563 402.14991402166567 409.1212100507668 398.7294593813166 411.72727072912807 398.70991392622886C414.33333140748925 398.6903684711412 416.93939208585044 401.9544594707886 419.54545276421163 401.993550380964C422.1515134425729 402.03264129113944 424.7575741209341 398.5535502855272 427.3636347992953 398.9444593872814C429.9696954776565 399.3353684890356 432.5757561560177 404.24127771605055 435.1818168343789 404.3390049914891C437.7878775127401 404.43673226692766 441.69696853028194 400.33218669850874 442.9999988694625 399.53082303991266 " transform="rotate(12, 400, 400)"></path><path d="M367.7499964089827 400.6156173067761C368.7272691633682 399.9706172888817 371.65908742652454 396.81891265598864 373.6136329352954 396.7456171994097C375.56817844406635 396.6723217428308 377.5227239528372 400.1025491107237 379.47726946160816 400.17584456730265C381.43181497037904 400.2491400238816 383.38636047914997 397.11209448230426 385.34090598792085 397.1853899388832C387.2954514966918 397.25868539546207 389.24999700546266 400.3370945717762 391.2045425142336 400.6156173067761C393.1590880230045 400.8941400417759 395.11363353177535 398.6952763444087 397.0681790405463 398.8565263488823C399.0227245493172 399.0177763533559 400.9772700580881 401.55379915098615 402.931815566859 401.5831173336177C404.8863610756299 401.61243551624926 406.84090658440084 399.04709453598747 408.7954520931717 399.03243544467165C410.7499976019426 399.0177763533559 412.70454311071353 401.46584460309145 414.65908861948446 401.495162785723C416.61363412825534 401.52448096835457 418.5681796370262 398.9151627141454 420.52272514579715 399.20834454046104C422.4772706545681 399.50152636677666 424.43181616333896 403.1809582870379 426.38636167210984 403.2542537436168C428.3409071808808 403.32754920019573 431.2727254440371 400.2491400238816 432.2499981984226 399.6481172799345 " transform="rotate(9, 400, 400)"></path><path d="M378.50000014911996 400.41041153785073C379.15151531871027 399.9804115259211 381.1060608274812 397.8792751039924 382.4090911666618 397.8304114662731C383.7121215058424 397.78154782855387 385.015151845023 400.0683660738158 386.3181821842036 400.1172297115351C387.6212125233842 400.16609334925437 388.9242428625648 398.0747296548695 390.22727320174545 398.1235932925888C391.530303540926 398.17245693030804 392.83333388010664 400.2247297145175 394.1363642192872 400.41041153785073C395.4393945584678 400.596093361184 396.74242489764845 399.1301842296058 398.04545523682907 399.2376842325882C399.34848557600964 399.34518423557057 400.65151591519026 401.0358661006574 401.9545462543708 401.05541155574514C403.25757659355145 401.07495701083286 404.56060693273207 399.3647296906583 405.8636372719127 399.35495696311443C407.16666761109326 399.34518423557057 408.4696979502738 400.9772297353943 409.77272828945445 400.996775190482C411.07575862863507 401.0163206455697 412.3787889678157 399.2767751427636 413.6818193069963 399.4722296936407C414.9848496461769 399.6676842445178 416.28787998535745 402.12063885802525 417.5909103245381 402.16950249574455C418.8939406637187 402.2183661334638 420.84848617248963 400.16609334925437 421.5000013420799 399.76541151995633 " transform="rotate(6, 400, 400)"></path><path d="M389.25000007456 400.20520576892534C389.57575765935513 399.99020576296056 390.5530304137406 398.9396375519962 391.2045455833309 398.9152057331366C391.85606075292117 398.8907739142769 392.5075759225115 400.0341830369079 393.1590910921018 400.05861485576753C393.8106062616921 400.0830466746272 394.4621214312824 399.03736482743477 395.1136366008727 399.0617966462944C395.76515177046304 399.086228465154 396.41666694005335 400.11236485725874 397.0681821096436 400.20520576892534C397.7196972792339 400.298046680592 398.3712124488242 399.5650921148029 399.02272761841454 399.6188421162941C399.6742427880048 399.6725921177853 400.3257579575951 400.51793305032874 400.9772731271854 400.52770577787254C401.6287882967757 400.5374785054164 402.28030346636604 399.6823648453292 402.93181863595635 399.6774784815572C403.58333380554666 399.6725921177853 404.2348489751369 400.48861486769715 404.8863641447272 400.498387595241C405.53787931431754 400.5081603227849 406.18939448390785 399.6383875713818 406.84090965349816 399.7361148468203C407.4924248230884 399.8338421222589 408.1439399926787 401.0603194290126 408.79545516226904 401.08475124787225C409.44697033185935 401.10918306673193 410.4242430862448 400.0830466746272 410.75000067103997 399.8827057599782 " transform="rotate(3, 400, 400)"></path></g></svg>